<svg width="388" height="87" viewBox="0 0 388 87" fill="none" xmlns="http://www.w3.org/2000/svg">
<g filter="url(#filter0_d_734_337)">
<path d="M263.807 39.6444C263.873 38.5476 264.147 37.6373 264.63 36.9134C265.112 36.1895 265.727 35.6082 266.473 35.1695C267.218 34.7308 268.052 34.4237 268.973 34.2482C269.916 34.0508 270.86 33.952 271.803 33.952C272.658 33.952 273.525 34.0178 274.402 34.1495C275.28 34.2591 276.08 34.4895 276.804 34.8404C277.528 35.1914 278.12 35.685 278.581 36.3211C279.042 36.9353 279.272 37.7579 279.272 38.7889V47.64C279.272 48.4078 279.316 49.1426 279.404 49.8445C279.491 50.5465 279.645 51.073 279.864 51.4239H275.126C275.038 51.1607 274.962 50.8975 274.896 50.6342C274.852 50.3491 274.819 50.0639 274.797 49.7787C274.051 50.5465 273.174 51.0839 272.165 51.391C271.156 51.6981 270.125 51.8517 269.072 51.8517C268.26 51.8517 267.503 51.753 266.802 51.5555C266.1 51.3581 265.485 51.051 264.959 50.6342C264.432 50.2175 264.016 49.691 263.709 49.0549C263.423 48.4187 263.281 47.6619 263.281 46.7845C263.281 45.8193 263.445 45.0296 263.774 44.4154C264.125 43.7793 264.564 43.2748 265.091 42.9019C265.639 42.5289 266.253 42.2548 266.933 42.0793C267.635 41.8818 268.337 41.7283 269.039 41.6186C269.741 41.5089 270.432 41.4212 271.112 41.3554C271.792 41.2896 272.395 41.1909 272.922 41.0592C273.448 40.9276 273.865 40.7412 274.172 40.4999C274.479 40.2367 274.622 39.8637 274.6 39.3812C274.6 38.8766 274.512 38.4818 274.337 38.1966C274.183 37.8895 273.964 37.6592 273.678 37.5056C273.415 37.3302 273.097 37.2205 272.724 37.1766C272.373 37.1108 271.989 37.0779 271.573 37.0779C270.651 37.0779 269.927 37.2753 269.401 37.6702C268.874 38.065 268.567 38.7231 268.48 39.6444H263.807ZM274.6 43.0993C274.402 43.2748 274.15 43.4173 273.843 43.527C273.558 43.6148 273.24 43.6915 272.889 43.7574C272.56 43.8232 272.209 43.878 271.836 43.9219C271.463 43.9657 271.09 44.0206 270.717 44.0864C270.366 44.1522 270.015 44.2399 269.664 44.3496C269.335 44.4593 269.039 44.6129 268.776 44.8103C268.534 44.9858 268.337 45.2161 268.184 45.5013C268.03 45.7864 267.953 46.1484 267.953 46.5871C267.953 47.0039 268.03 47.3548 268.184 47.64C268.337 47.9252 268.545 48.1555 268.809 48.331C269.072 48.4845 269.379 48.5942 269.73 48.66C270.081 48.7258 270.443 48.7587 270.816 48.7587C271.737 48.7587 272.45 48.6052 272.955 48.2981C273.459 47.991 273.832 47.629 274.073 47.2122C274.315 46.7735 274.457 46.3348 274.501 45.8961C274.567 45.4574 274.6 45.1064 274.6 44.8432V43.0993Z" fill="white"/>
<path d="M244.5 34.4127H248.942V36.7818H249.041C249.633 35.7947 250.401 35.0817 251.344 34.643C252.287 34.1824 253.253 33.952 254.24 33.952C255.49 33.952 256.51 34.1275 257.3 34.4785C258.111 34.8075 258.748 35.2792 259.208 35.8934C259.669 36.4856 259.987 37.2205 260.162 38.0979C260.36 38.9534 260.459 39.9076 260.459 40.9605V51.4239H255.786V41.816C255.786 40.4121 255.567 39.3702 255.128 38.6902C254.689 37.9882 253.911 37.6373 252.792 37.6373C251.52 37.6373 250.598 38.0211 250.028 38.7889C249.458 39.5347 249.173 40.7741 249.173 42.507V51.4239H244.5V34.4127Z" fill="white"/>
<path d="M219.373 42.9348C219.373 43.6148 219.439 44.2838 219.571 44.9419C219.702 45.578 219.922 46.1593 220.229 46.6858C220.558 47.1903 220.985 47.5961 221.512 47.9032C222.038 48.2103 222.696 48.3639 223.486 48.3639C224.276 48.3639 224.934 48.2103 225.46 47.9032C226.009 47.5961 226.437 47.1903 226.744 46.6858C227.073 46.1593 227.303 45.578 227.435 44.9419C227.566 44.2838 227.632 43.6148 227.632 42.9348C227.632 42.2548 227.566 41.5857 227.435 40.9276C227.303 40.2696 227.073 39.6883 226.744 39.1837C226.437 38.6792 226.009 38.2734 225.46 37.9663C224.934 37.6373 224.276 37.4727 223.486 37.4727C222.696 37.4727 222.038 37.6373 221.512 37.9663C220.985 38.2734 220.558 38.6792 220.229 39.1837C219.922 39.6883 219.702 40.2696 219.571 40.9276C219.439 41.5857 219.373 42.2548 219.373 42.9348ZM214.701 42.9348C214.701 41.5747 214.909 40.3463 215.326 39.2495C215.743 38.1308 216.335 37.1876 217.103 36.4198C217.871 35.6301 218.792 35.0269 219.867 34.6101C220.942 34.1714 222.148 33.952 223.486 33.952C224.824 33.952 226.031 34.1714 227.106 34.6101C228.202 35.0269 229.135 35.6301 229.902 36.4198C230.67 37.1876 231.262 38.1308 231.679 39.2495C232.096 40.3463 232.304 41.5747 232.304 42.9348C232.304 44.2948 232.096 45.5232 231.679 46.62C231.262 47.7168 230.67 48.66 229.902 49.4497C229.135 50.2175 228.202 50.8097 227.106 51.2265C226.031 51.6433 224.824 51.8517 223.486 51.8517C222.148 51.8517 220.942 51.6433 219.867 51.2265C218.792 50.8097 217.871 50.2175 217.103 49.4497C216.335 48.66 215.743 47.7168 215.326 46.62C214.909 45.5232 214.701 44.2948 214.701 42.9348Z" fill="white"/>
<path d="M207.188 42.8689C207.188 42.1669 207.122 41.4979 206.991 40.8617C206.859 40.2037 206.629 39.6333 206.3 39.1507C205.993 38.6462 205.587 38.2404 205.082 37.9333C204.578 37.6262 203.942 37.4727 203.174 37.4727C202.406 37.4727 201.759 37.6262 201.233 37.9333C200.706 38.2404 200.278 38.6462 199.949 39.1507C199.642 39.6553 199.412 40.2366 199.258 40.8946C199.127 41.5308 199.061 42.1998 199.061 42.9018C199.061 43.5598 199.138 44.2179 199.291 44.876C199.445 45.5341 199.686 46.1263 200.015 46.6528C200.366 47.1573 200.794 47.5741 201.298 47.9031C201.825 48.2102 202.45 48.3638 203.174 48.3638C203.942 48.3638 204.578 48.2102 205.082 47.9031C205.609 47.596 206.026 47.1902 206.333 46.6857C206.64 46.1592 206.859 45.567 206.991 44.9089C207.122 44.2508 207.188 43.5708 207.188 42.8689ZM207.254 49.2522H207.188C206.64 50.1735 205.916 50.8425 205.016 51.2593C204.139 51.6542 203.141 51.8516 202.022 51.8516C200.75 51.8516 199.631 51.6103 198.666 51.1277C197.701 50.6232 196.9 49.9541 196.264 49.1206C195.65 48.2651 195.178 47.2889 194.849 46.1921C194.542 45.0954 194.389 43.9547 194.389 42.7702C194.389 41.6295 194.542 40.5327 194.849 39.4798C195.178 38.4049 195.65 37.4617 196.264 36.6501C196.9 35.8384 197.69 35.1913 198.633 34.7087C199.576 34.2042 200.673 33.952 201.924 33.952C202.933 33.952 203.887 34.1713 204.786 34.61C205.707 35.0268 206.431 35.652 206.958 36.4855H207.024V27.9306H211.696V51.4238H207.254V49.2522Z" fill="white"/>
<path d="M175.608 34.4127H180.05V36.7818H180.149C180.741 35.7947 181.509 35.0817 182.452 34.643C183.395 34.1824 184.36 33.952 185.347 33.952C186.598 33.952 187.618 34.1275 188.407 34.4785C189.219 34.8075 189.855 35.2792 190.316 35.8934C190.777 36.4856 191.095 37.2205 191.27 38.0979C191.468 38.9534 191.566 39.9076 191.566 40.9605V51.4239H186.894V41.816C186.894 40.4121 186.675 39.3702 186.236 38.6902C185.797 37.9882 185.018 37.6373 183.9 37.6373C182.627 37.6373 181.706 38.0211 181.136 38.7889C180.565 39.5347 180.28 40.7741 180.28 42.507V51.4239H175.608V34.4127Z" fill="white"/>
<path d="M156.517 39.6444C156.583 38.5476 156.857 37.6373 157.339 36.9134C157.822 36.1895 158.436 35.6082 159.182 35.1695C159.928 34.7308 160.761 34.4237 161.683 34.2482C162.626 34.0508 163.569 33.952 164.512 33.952C165.368 33.952 166.234 34.0178 167.112 34.1495C167.989 34.2591 168.79 34.4895 169.514 34.8404C170.238 35.1914 170.83 35.685 171.291 36.3211C171.751 36.9353 171.982 37.7579 171.982 38.7889V47.64C171.982 48.4078 172.025 49.1426 172.113 49.8445C172.201 50.5465 172.354 51.073 172.574 51.4239H167.836C167.748 51.1607 167.671 50.8975 167.605 50.6342C167.562 50.3491 167.529 50.0639 167.507 49.7787C166.761 50.5465 165.883 51.0839 164.874 51.391C163.865 51.6981 162.834 51.8517 161.781 51.8517C160.97 51.8517 160.213 51.753 159.511 51.5555C158.809 51.3581 158.195 51.051 157.668 50.6342C157.142 50.2175 156.725 49.691 156.418 49.0549C156.133 48.4187 155.99 47.6619 155.99 46.7845C155.99 45.8193 156.155 45.0296 156.484 44.4154C156.835 43.7793 157.274 43.2748 157.8 42.9019C158.348 42.5289 158.963 42.2548 159.643 42.0793C160.345 41.8818 161.047 41.7283 161.749 41.6186C162.45 41.5089 163.141 41.4212 163.821 41.3554C164.501 41.2896 165.105 41.1909 165.631 41.0592C166.158 40.9276 166.574 40.7412 166.882 40.4999C167.189 40.2367 167.331 39.8637 167.309 39.3812C167.309 38.8766 167.222 38.4818 167.046 38.1966C166.892 37.8895 166.673 37.6592 166.388 37.5056C166.125 37.3302 165.807 37.2205 165.434 37.1766C165.083 37.1108 164.699 37.0779 164.282 37.0779C163.361 37.0779 162.637 37.2753 162.11 37.6702C161.584 38.065 161.277 38.7231 161.189 39.6444H156.517ZM167.309 43.0993C167.112 43.2748 166.86 43.4173 166.552 43.527C166.267 43.6148 165.949 43.6915 165.598 43.7574C165.269 43.8232 164.918 43.878 164.545 43.9219C164.172 43.9657 163.8 44.0206 163.427 44.0864C163.076 44.1522 162.725 44.2399 162.374 44.3496C162.045 44.4593 161.749 44.6129 161.485 44.8103C161.244 44.9858 161.047 45.2161 160.893 45.5013C160.739 45.7864 160.663 46.1484 160.663 46.5871C160.663 47.0039 160.739 47.3548 160.893 47.64C161.047 47.9252 161.255 48.1555 161.518 48.331C161.781 48.4845 162.089 48.5942 162.44 48.66C162.79 48.7258 163.152 48.7587 163.525 48.7587C164.447 48.7587 165.16 48.6052 165.664 48.2981C166.169 47.991 166.542 47.629 166.783 47.2122C167.024 46.7735 167.167 46.3348 167.211 45.8961C167.276 45.4574 167.309 45.1064 167.309 44.8432V43.0993Z" fill="white"/>
<path d="M137.21 27.9306H141.882V36.7817H141.981C142.573 35.7946 143.33 35.0817 144.251 34.6429C145.172 34.1823 146.072 33.952 146.949 33.952C148.2 33.952 149.22 34.1274 150.009 34.4784C150.821 34.8075 151.457 35.2791 151.918 35.8933C152.378 36.4855 152.696 37.2204 152.872 38.0978C153.069 38.9533 153.168 39.9075 153.168 40.9605V51.4238H148.496V41.8159C148.496 40.4121 148.276 39.3701 147.838 38.6901C147.399 37.9881 146.62 37.6372 145.502 37.6372C144.229 37.6372 143.308 38.0211 142.738 38.7888C142.167 39.5346 141.882 40.774 141.882 42.5069V51.4238H137.21V27.9306Z" fill="white"/>
<path d="M128.858 27.9306H133.53V51.4238H128.858V27.9306Z" fill="white"/>
<path d="M125.18 51.4241H120.738V49.0551H120.639C120.047 50.0422 119.279 50.7551 118.336 51.1938C117.393 51.6325 116.428 51.8519 115.441 51.8519C114.19 51.8519 113.159 51.6874 112.348 51.3583C111.558 51.0293 110.933 50.5686 110.472 49.9764C110.012 49.3622 109.683 48.6273 109.485 47.7718C109.31 46.8944 109.222 45.9292 109.222 44.8763V34.4129H113.894V44.0208C113.894 45.4247 114.114 46.4776 114.552 47.1796C114.991 47.8596 115.77 48.1996 116.888 48.1996C118.161 48.1996 119.082 47.8267 119.652 47.0808C120.223 46.3131 120.508 45.0627 120.508 43.3298V34.4129H125.18V51.4241Z" fill="white"/>
<path d="M97.0371 47.4097C97.6952 47.4097 98.2765 47.2781 98.781 47.0148C99.2856 46.7516 99.7023 46.4006 100.031 45.9619C100.36 45.5232 100.602 45.0296 100.755 44.4812C100.931 43.9109 101.018 43.3186 101.018 42.7044C101.018 42.0025 100.953 41.3444 100.821 40.7302C100.689 40.0941 100.47 39.5347 100.163 39.0521C99.8559 38.5695 99.4501 38.1857 98.9456 37.9005C98.441 37.6153 97.8049 37.4727 97.0371 37.4727C96.3791 37.4727 95.8087 37.6044 95.3261 37.8676C94.8655 38.1308 94.4706 38.4928 94.1416 38.9534C93.8345 39.3921 93.6042 39.9076 93.4506 40.4999C93.319 41.0702 93.2532 41.6735 93.2532 42.3096C93.2532 42.9238 93.308 43.538 93.4177 44.1522C93.5493 44.7445 93.7577 45.2819 94.0429 45.7645C94.35 46.2471 94.7448 46.6419 95.2274 46.949C95.71 47.2561 96.3133 47.4097 97.0371 47.4097ZM105.46 50.3381C105.46 51.0181 105.362 51.7968 105.164 52.6743C104.989 53.5517 104.594 54.3633 103.98 55.1091C103.366 55.8769 102.477 56.524 101.315 57.0505C100.152 57.5769 98.5946 57.8402 96.6423 57.8402C95.8087 57.8402 94.9532 57.7305 94.0758 57.5111C93.2203 57.3137 92.4306 56.9956 91.7067 56.5569C91.0048 56.1182 90.4125 55.5479 89.9299 54.8459C89.4693 54.1659 89.206 53.3433 89.1402 52.3781H93.7797C93.999 53.2556 94.4268 53.8588 95.0629 54.1878C95.699 54.5388 96.4339 54.7143 97.2675 54.7143C98.5836 54.7143 99.5378 54.3195 100.13 53.5298C100.744 52.7401 101.04 51.742 101.018 50.5355V48.2981H100.953C100.448 49.1974 99.7243 49.8665 98.781 50.3052C97.8597 50.722 96.8836 50.9304 95.8526 50.9304C94.5803 50.9304 93.4835 50.711 92.5622 50.2723C91.6409 49.8116 90.8841 49.1974 90.2919 48.4297C89.6996 47.64 89.2609 46.7297 88.9757 45.6987C88.7125 44.6458 88.5809 43.538 88.5809 42.3754C88.5809 41.2786 88.7344 40.2257 89.0415 39.2166C89.3706 38.1857 89.8422 37.2863 90.4564 36.5185C91.0706 35.7288 91.8274 35.1037 92.7267 34.643C93.6481 34.1824 94.701 33.952 95.8855 33.952C97.0042 33.952 97.9804 34.1604 98.8139 34.5772C99.6694 34.994 100.382 35.6959 100.953 36.6831H101.018V34.4127H105.46V50.3381Z" fill="white"/>
<path d="M77.2505 34.4127H81.6925V37.5715H81.7583C81.9776 37.045 82.2738 36.5624 82.6467 36.1237C83.0196 35.663 83.4473 35.2792 83.9299 34.9721C84.4125 34.643 84.928 34.3908 85.4764 34.2153C86.0248 34.0398 86.5951 33.952 87.1874 33.952C87.4945 33.952 87.8345 34.0069 88.2074 34.1166V38.4599C87.9881 38.416 87.7248 38.3831 87.4177 38.3611C87.1106 38.3173 86.8145 38.2953 86.5293 38.2953C85.6738 38.2953 84.9499 38.4379 84.3577 38.7231C83.7654 39.0082 83.2828 39.4031 82.9099 39.9076C82.5589 40.3902 82.3067 40.9605 82.1531 41.6186C81.9996 42.2767 81.9228 42.9896 81.9228 43.7574V51.4239H77.2505V34.4127Z" fill="white"/>
<path d="M69.8066 41.0922C69.5872 39.9076 69.1924 39.0082 68.622 38.394C68.0736 37.7798 67.2291 37.4727 66.0884 37.4727C65.3426 37.4727 64.7174 37.6044 64.2129 37.8676C63.7303 38.1089 63.3355 38.416 63.0284 38.7889C62.7432 39.1618 62.5348 39.5566 62.4032 39.9734C62.2935 40.3902 62.2277 40.7631 62.2058 41.0922H69.8066ZM62.2058 44.0535C62.2716 45.5671 62.6555 46.6639 63.3574 47.3439C64.0594 48.0239 65.0684 48.3639 66.3846 48.3639C67.3278 48.3639 68.1394 48.1336 68.8194 47.6729C69.4995 47.1903 69.9162 46.6858 70.0698 46.1593H74.1828C73.5247 48.1994 72.5156 49.6581 71.1556 50.5355C69.7956 51.413 68.1504 51.8517 66.22 51.8517C64.882 51.8517 63.6755 51.6433 62.6006 51.2265C61.5258 50.7878 60.6154 50.1736 59.8696 49.3839C59.1238 48.5942 58.5425 47.651 58.1257 46.5542C57.7309 45.4574 57.5335 44.2509 57.5335 42.9348C57.5335 41.6625 57.7419 40.478 58.1586 39.3812C58.5754 38.2844 59.1677 37.3411 59.9354 36.5514C60.7032 35.7398 61.6135 35.1037 62.6664 34.643C63.7413 34.1824 64.9258 33.952 66.22 33.952C67.6678 33.952 68.9291 34.2372 70.004 34.8075C71.0788 35.3559 71.9563 36.1018 72.6363 37.045C73.3382 37.9882 73.8427 39.0631 74.1498 40.2696C74.4569 41.476 74.5666 42.7373 74.4789 44.0535H62.2058Z" fill="white"/>
<path d="M28.669 34.4127H33.0781V36.716H33.1439C33.7581 35.8385 34.4929 35.1585 35.3484 34.6759C36.2259 34.1933 37.2239 33.952 38.3427 33.952C39.4175 33.952 40.3937 34.1604 41.2711 34.5772C42.1705 34.994 42.8505 35.7288 43.3111 36.7818C43.8156 36.0359 44.4957 35.3779 45.3512 34.8075C46.2286 34.2372 47.2596 33.952 48.4441 33.952C49.3435 33.952 50.177 34.0617 50.9448 34.2811C51.7125 34.5004 52.3706 34.8514 52.919 35.334C53.4674 35.8166 53.8952 36.4527 54.2023 37.2424C54.5094 38.0102 54.6629 38.9424 54.6629 40.0392V51.4239H49.9906V41.7831C49.9906 41.2128 49.9686 40.6754 49.9248 40.1708C49.8809 39.6663 49.7603 39.2276 49.5628 38.8547C49.3654 38.4818 49.0693 38.1857 48.6744 37.9663C48.3015 37.7469 47.786 37.6373 47.128 37.6373C46.4699 37.6373 45.9325 37.7689 45.5157 38.0321C45.1208 38.2734 44.8028 38.6024 44.5615 39.0192C44.3421 39.4141 44.1886 39.8747 44.1008 40.4012C44.035 40.9057 44.0021 41.4212 44.0021 41.9476V51.4239H39.3298V41.8818C39.3298 41.3773 39.3188 40.8838 39.2969 40.4012C39.2749 39.8967 39.1762 39.436 39.0007 39.0192C38.8472 38.6024 38.573 38.2734 38.1781 38.0321C37.8052 37.7689 37.2459 37.6373 36.5 37.6373C36.2807 37.6373 35.9846 37.6921 35.6116 37.8018C35.2607 37.8895 34.9097 38.076 34.5587 38.3611C34.2297 38.6244 33.9445 39.0192 33.7032 39.5457C33.4619 40.0502 33.3413 40.7192 33.3413 41.5528V51.4239H28.669V34.4127Z" fill="white"/>
<path d="M372.476 4.3C375.992 4.30014 378.842 7.15037 378.842 10.6662V67.7209C378.842 71.2367 375.992 74.087 372.476 74.0871H19.4406L19.1535 74.0832C13.1337 73.9307 8.30021 69.003 8.3 62.9465V15.4406C8.30007 9.38395 13.1336 4.45642 19.1535 4.30391L19.4406 4.3H372.476ZM19.4406 9.07442C15.9248 9.07449 13.0745 11.9248 13.0744 15.4406V62.9465C13.0746 66.4622 15.9249 69.3126 19.4406 69.3127H293.934V9.07442H19.4406ZM308.683 61.4348H319.397V17.1076H308.683V61.4348ZM324.196 61.4348H335.711L338.627 52.1281H353.935L356.857 61.4348H368.371L353.415 17.1076H339.153L324.196 61.4348ZM351.38 43.9895H341.177L346.1 28.2756H346.446L351.38 43.9895Z" fill="#2140F9"/>
<path d="M372.476 4.3C375.992 4.30014 378.842 7.15037 378.842 10.6662V67.7209C378.842 71.2367 375.992 74.087 372.476 74.0871H19.4406L19.1535 74.0832C13.1337 73.9307 8.30021 69.003 8.3 62.9465V15.4406C8.30007 9.38395 13.1336 4.45642 19.1535 4.30391L19.4406 4.3H372.476ZM19.4406 9.07442C15.9248 9.07449 13.0745 11.9248 13.0744 15.4406V62.9465C13.0746 66.4622 15.9249 69.3126 19.4406 69.3127H293.934V9.07442H19.4406ZM308.683 61.4348H319.397V17.1076H308.683V61.4348ZM324.196 61.4348H335.711L338.627 52.1281H353.935L356.857 61.4348H368.371L353.415 17.1076H339.153L324.196 61.4348ZM351.38 43.9895H341.177L346.1 28.2756H346.446L351.38 43.9895Z" fill="#FBFBFB"/>
<path d="M372.476 4.3C375.992 4.30014 378.842 7.15037 378.842 10.6662V67.7209C378.842 71.2367 375.992 74.087 372.476 74.0871H19.4406L19.1535 74.0832C13.1337 73.9307 8.30021 69.003 8.3 62.9465V15.4406C8.30007 9.38395 13.1336 4.45642 19.1535 4.30391L19.4406 4.3H372.476ZM19.4406 9.07442C15.9248 9.07449 13.0745 11.9248 13.0744 15.4406V62.9465C13.0746 66.4622 15.9249 69.3126 19.4406 69.3127H293.934V9.07442H19.4406ZM308.683 61.4348H319.397V17.1076H308.683V61.4348ZM324.196 61.4348H335.711L338.627 52.1281H353.935L356.857 61.4348H368.371L353.415 17.1076H339.153L324.196 61.4348ZM351.38 43.9895H341.177L346.1 28.2756H346.446L351.38 43.9895Z" fill="white"/>
<path d="M372.476 4.3C375.992 4.30014 378.842 7.15037 378.842 10.6662V67.7209C378.842 71.2367 375.992 74.087 372.476 74.0871H19.4406L19.1535 74.0832C13.1337 73.9307 8.30021 69.003 8.3 62.9465V15.4406C8.30007 9.38395 13.1336 4.45642 19.1535 4.30391L19.4406 4.3H372.476ZM19.4406 9.07442C15.9248 9.07449 13.0745 11.9248 13.0744 15.4406V62.9465C13.0746 66.4622 15.9249 69.3126 19.4406 69.3127H293.934V9.07442H19.4406ZM308.683 61.4348H319.397V17.1076H308.683V61.4348ZM324.196 61.4348H335.711L338.627 52.1281H353.935L356.857 61.4348H368.371L353.415 17.1076H339.153L324.196 61.4348ZM351.38 43.9895H341.177L346.1 28.2756H346.446L351.38 43.9895Z" fill="white"/>
<path d="M372.476 4.3C375.992 4.30014 378.842 7.15037 378.842 10.6662V67.7209C378.842 71.2367 375.992 74.087 372.476 74.0871H19.4406L19.1535 74.0832C13.1337 73.9307 8.30021 69.003 8.3 62.9465V15.4406C8.30007 9.38395 13.1336 4.45642 19.1535 4.30391L19.4406 4.3H372.476ZM19.4406 9.07442C15.9248 9.07449 13.0745 11.9248 13.0744 15.4406V62.9465C13.0746 66.4622 15.9249 69.3126 19.4406 69.3127H293.934V9.07442H19.4406ZM308.683 61.4348H319.397V17.1076H308.683V61.4348ZM324.196 61.4348H335.711L338.627 52.1281H353.935L356.857 61.4348H368.371L353.415 17.1076H339.153L324.196 61.4348ZM351.38 43.9895H341.177L346.1 28.2756H346.446L351.38 43.9895Z" fill="url(#paint0_radial_734_337)"/>
</g>
<defs>
<filter id="filter0_d_734_337" x="2.86102e-06" y="2.86102e-06" width="387.142" height="86.3875" filterUnits="userSpaceOnUse" color-interpolation-filters="sRGB">
<feFlood flood-opacity="0" result="BackgroundImageFix"/>
<feColorMatrix in="SourceAlpha" type="matrix" values="0 0 0 0 0 0 0 0 0 0 0 0 0 0 0 0 0 0 127 0" result="hardAlpha"/>
<feOffset dy="4"/>
<feGaussianBlur stdDeviation="4.15"/>
<feComposite in2="hardAlpha" operator="out"/>
<feColorMatrix type="matrix" values="0 0 0 0 0 0 0 0 0 0 0 0 0 0 0 0 0 0 0.35 0"/>
<feBlend mode="normal" in2="BackgroundImageFix" result="effect1_dropShadow_734_337"/>
<feBlend mode="normal" in="SourceGraphic" in2="effect1_dropShadow_734_337" result="shape"/>
</filter>
<radialGradient id="paint0_radial_734_337" cx="0" cy="0" r="1" gradientTransform="matrix(370.542 -73.8076 39.8932 40.0594 8.30003 78.1076)" gradientUnits="userSpaceOnUse">
<stop stop-color="#7EE9FE"/>
<stop offset="1" stop-color="#7EE9FE" stop-opacity="0"/>
</radialGradient>
</defs>
</svg>
